<?xml version="1.0" encoding="UTF-8" standalone="no"?><!DOCTYPE svg PUBLIC "-//W3C//DTD SVG 1.1//EN" "http://www.w3.org/Graphics/SVG/1.1/DTD/svg11.dtd"><svg width="100%" height="100%" viewBox="0 0 24 24" version="1.1" xmlns="http://www.w3.org/2000/svg" xmlns:xlink="http://www.w3.org/1999/xlink" xml:space="preserve" xmlns:serif="http://www.serif.com/" style="fill-rule:evenodd;clip-rule:evenodd;stroke-linejoin:round;stroke-miterlimit:2;"><g><g><path d="M24,3.6c0,-1.987 -1.613,-3.6 -3.6,-3.6l-16.8,0c-1.987,0 -3.6,1.613 -3.6,3.6l0,16.8c0,1.987 1.613,3.6 3.6,3.6l16.8,-0c1.987,-0 3.6,-1.613 3.6,-3.6l0,-16.8Z" style="fill:#ef4444;"/></g><path d="M10.988,4.832l-2.26,1.399l7.486,2.901l0,2.138l-7.486,-2.799l-2.684,1.54l7.487,2.939l-0,2.239l-7.487,-2.888l-2.542,1.209l7.769,3.219l-0,2.439l7.627,-4.494l0,-6.903l-7.91,-2.939Z" style="fill:#fff;fill-rule:nonzero;"/></g></svg>