<?xml version="1.0" encoding="UTF-8" standalone="no"?><!DOCTYPE svg PUBLIC "-//W3C//DTD SVG 1.1//EN" "http://www.w3.org/Graphics/SVG/1.1/DTD/svg11.dtd"><svg width="100%" height="100%" viewBox="0 0 667 100" version="1.1" xmlns="http://www.w3.org/2000/svg" xmlns:xlink="http://www.w3.org/1999/xlink" xml:space="preserve" xmlns:serif="http://www.serif.com/" style="fill-rule:evenodd;clip-rule:evenodd;stroke-linejoin:round;stroke-miterlimit:2;"><path d="M100,15c0,-8.28 -6.72,-15 -15,-15l-70,0c-8.28,0 -15,6.72 -15,15l0,70c0,8.28 6.72,15 15,15l70,0c8.28,0 15,-6.72 15,-15l0,-70Z" style="fill:#ef4444;"/><path d="M45.784,20.132l-9.416,5.832l31.192,12.085l0,8.91l-31.192,-11.664l-11.183,6.416l31.193,12.246l-0,9.332l-31.193,-12.037l-10.595,5.038l32.371,13.413l0,10.165l31.782,-18.727l-0,-28.761l-32.959,-12.248Z" style="fill:#fff;fill-rule:nonzero;"/><path d="M147.504,79.49c-4.058,0 -7.696,-0.659 -10.911,-1.976c-3.216,-1.318 -5.785,-3.269 -7.709,-5.852c-1.924,-2.582 -2.939,-5.692 -3.045,-9.33l14.391,0c0.211,2.056 0.923,3.624 2.135,4.705c1.212,1.081 2.794,1.621 4.744,1.621c2.003,-0 3.585,-0.461 4.744,-1.384c1.16,-0.922 1.74,-2.201 1.74,-3.835c-0,-1.37 -0.462,-2.504 -1.384,-3.4c-0.922,-0.896 -2.056,-1.634 -3.4,-2.214c-1.344,-0.579 -3.255,-1.238 -5.732,-1.976c-3.585,-1.107 -6.51,-2.214 -8.777,-3.321c-2.267,-1.107 -4.217,-2.741 -5.851,-4.903c-1.634,-2.161 -2.451,-4.981 -2.451,-8.46c-0,-5.166 1.871,-9.211 5.614,-12.137c3.742,-2.926 8.618,-4.388 14.627,-4.388c6.115,-0 11.044,1.462 14.786,4.388c3.743,2.926 5.746,6.998 6.009,12.216l-14.627,0c-0.106,-1.792 -0.765,-3.202 -1.977,-4.23c-1.212,-1.028 -2.767,-1.542 -4.665,-1.542c-1.634,0 -2.952,0.435 -3.954,1.305c-1.001,0.87 -1.502,2.121 -1.502,3.756c0,1.792 0.844,3.189 2.53,4.19c1.687,1.002 4.323,2.082 7.907,3.242c3.585,1.212 6.497,2.372 8.737,3.479c2.241,1.107 4.178,2.715 5.812,4.823c1.634,2.109 2.451,4.823 2.451,8.144c0,3.163 -0.804,6.036 -2.412,8.619c-1.607,2.583 -3.94,4.639 -6.997,6.167c-3.057,1.529 -6.668,2.293 -10.833,2.293Z" style="fill:#131522;fill-rule:nonzero;"/><path d="M173.36,56.877c-0,-4.586 0.936,-8.593 2.807,-12.019c1.871,-3.426 4.481,-6.062 7.828,-7.907c3.347,-1.845 7.182,-2.767 11.504,-2.767c5.535,-0 10.161,1.449 13.877,4.349c3.716,2.899 6.154,6.984 7.314,12.255l-14.391,0c-1.212,-3.373 -3.558,-5.06 -7.037,-5.06c-2.477,-0 -4.454,0.962 -5.93,2.886c-1.476,1.924 -2.214,4.678 -2.214,8.263c0,3.584 0.738,6.338 2.214,8.262c1.476,1.924 3.453,2.886 5.93,2.886c3.479,0 5.825,-1.686 7.037,-5.06l14.391,-0c-1.16,5.166 -3.611,9.225 -7.354,12.177c-3.742,2.951 -8.355,4.427 -13.837,4.427c-4.322,0 -8.157,-0.922 -11.504,-2.767c-3.347,-1.845 -5.957,-4.481 -7.828,-7.907c-1.871,-3.426 -2.807,-7.432 -2.807,-12.018Z" style="fill:#131522;fill-rule:nonzero;"/><path d="M251.006,34.342c5.06,-0 9.119,1.673 12.177,5.021c3.057,3.347 4.586,7.946 4.586,13.797l-0,25.777l-13.442,-0l-0,-23.958c-0,-2.952 -0.765,-5.245 -2.293,-6.879c-1.529,-1.634 -3.585,-2.451 -6.168,-2.451c-2.583,-0 -4.638,0.817 -6.167,2.451c-1.529,1.634 -2.293,3.927 -2.293,6.879l-0,23.958l-13.521,-0l0,-58.511l13.521,-0l-0,20.32c1.371,-1.95 3.242,-3.505 5.614,-4.665c2.372,-1.159 5.034,-1.739 7.986,-1.739Z" style="fill:#131522;fill-rule:nonzero;"/><path d="M297.261,79.569c-4.322,0 -8.21,-0.922 -11.662,-2.767c-3.453,-1.845 -6.168,-4.481 -8.145,-7.907c-1.976,-3.426 -2.965,-7.432 -2.965,-12.018c0,-4.534 1.002,-8.527 3.005,-11.979c2.003,-3.453 4.744,-6.102 8.223,-7.947c3.479,-1.845 7.38,-2.767 11.702,-2.767c4.323,-0 8.224,0.922 11.703,2.767c3.479,1.845 6.22,4.494 8.223,7.947c2.003,3.452 3.004,7.445 3.004,11.979c0,4.533 -1.014,8.526 -3.044,11.979c-2.029,3.452 -4.797,6.101 -8.302,7.946c-3.505,1.845 -7.419,2.767 -11.742,2.767Zm0,-11.702c2.583,0 4.784,-0.949 6.603,-2.846c1.818,-1.898 2.727,-4.613 2.727,-8.144c0,-3.532 -0.882,-6.247 -2.648,-8.145c-1.766,-1.897 -3.941,-2.846 -6.524,-2.846c-2.635,-0 -4.823,0.936 -6.562,2.807c-1.74,1.871 -2.61,4.599 -2.61,8.184c0,3.531 0.857,6.246 2.57,8.144c1.713,1.897 3.861,2.846 6.444,2.846Z" style="fill:#131522;fill-rule:nonzero;"/><path d="M347.628,79.569c-4.322,0 -8.21,-0.922 -11.662,-2.767c-3.453,-1.845 -6.168,-4.481 -8.145,-7.907c-1.976,-3.426 -2.965,-7.432 -2.965,-12.018c0,-4.534 1.002,-8.527 3.005,-11.979c2.003,-3.453 4.744,-6.102 8.223,-7.947c3.479,-1.845 7.38,-2.767 11.702,-2.767c4.323,-0 8.224,0.922 11.703,2.767c3.479,1.845 6.22,4.494 8.223,7.947c2.003,3.452 3.004,7.445 3.004,11.979c0,4.533 -1.014,8.526 -3.044,11.979c-2.029,3.452 -4.797,6.101 -8.302,7.946c-3.505,1.845 -7.419,2.767 -11.742,2.767Zm0,-11.702c2.583,0 4.784,-0.949 6.603,-2.846c1.818,-1.898 2.727,-4.613 2.727,-8.144c0,-3.532 -0.882,-6.247 -2.648,-8.145c-1.766,-1.897 -3.941,-2.846 -6.524,-2.846c-2.635,-0 -4.823,0.936 -6.562,2.807c-1.74,1.871 -2.61,4.599 -2.61,8.184c0,3.531 0.857,6.246 2.57,8.144c1.713,1.897 3.861,2.846 6.444,2.846Z" style="fill:#131522;fill-rule:nonzero;"/><rect x="377.912" y="20.426" width="13.521" height="58.511" style="fill:#131522;"/><path d="M464.097,23.43l0,55.507l-13.521,-0l0,-33.288l-12.414,33.288l-10.911,-0l-12.493,-33.367l-0,33.367l-13.521,-0l0,-55.507l15.972,0l15.577,38.428l15.418,-38.428l15.893,0Z" style="fill:#131522;fill-rule:nonzero;"/><path d="M471.134,56.797c0,-4.533 0.857,-8.513 2.57,-11.939c1.713,-3.426 4.046,-6.062 6.998,-7.907c2.952,-1.845 6.246,-2.767 9.883,-2.767c3.11,-0 5.838,0.632 8.184,1.897c2.346,1.265 4.151,2.926 5.416,4.982l0,-6.247l13.521,0l-0,44.121l-13.521,-0l0,-6.247c-1.318,2.056 -3.149,3.717 -5.495,4.982c-2.346,1.265 -5.074,1.897 -8.184,1.897c-3.584,0 -6.852,-0.935 -9.804,-2.807c-2.952,-1.871 -5.285,-4.533 -6.998,-7.986c-1.713,-3.452 -2.57,-7.445 -2.57,-11.979Zm33.051,0.08c0,-3.374 -0.936,-6.036 -2.807,-7.986c-1.871,-1.951 -4.151,-2.926 -6.839,-2.926c-2.689,0 -4.968,0.962 -6.84,2.886c-1.871,1.924 -2.807,4.573 -2.807,7.946c0,3.374 0.936,6.049 2.807,8.026c1.872,1.977 4.151,2.965 6.84,2.965c2.688,0 4.968,-0.975 6.839,-2.925c1.871,-1.951 2.807,-4.613 2.807,-7.986Z" style="fill:#131522;fill-rule:nonzero;"/><path d="M554.473,78.937l-13.442,-18.502l0,18.502l-13.52,-0l-0,-58.511l13.52,-0l0,32.339l13.363,-17.949l16.684,0l-18.344,22.14l18.502,21.981l-16.763,-0Z" style="fill:#131522;fill-rule:nonzero;"/><path d="M617.966,56.165c-0,1.265 -0.079,2.583 -0.238,3.953l-30.599,0c0.21,2.741 1.093,4.837 2.648,6.286c1.555,1.45 3.466,2.175 5.733,2.175c3.374,-0 5.719,-1.423 7.037,-4.27l14.391,0c-0.738,2.899 -2.069,5.509 -3.993,7.828c-1.924,2.319 -4.336,4.138 -7.235,5.456c-2.899,1.317 -6.141,1.976 -9.726,1.976c-4.322,0 -8.17,-0.922 -11.544,-2.767c-3.373,-1.845 -6.009,-4.481 -7.907,-7.907c-1.897,-3.426 -2.846,-7.432 -2.846,-12.018c-0,-4.586 0.936,-8.593 2.807,-12.019c1.871,-3.426 4.494,-6.062 7.867,-7.907c3.374,-1.845 7.248,-2.767 11.623,-2.767c4.27,-0 8.065,0.896 11.386,2.688c3.321,1.792 5.917,4.349 7.789,7.67c1.871,3.321 2.807,7.195 2.807,11.623Zm-13.838,-3.558c0,-2.32 -0.79,-4.164 -2.372,-5.535c-1.581,-1.371 -3.558,-2.056 -5.93,-2.056c-2.266,0 -4.177,0.659 -5.732,1.977c-1.555,1.318 -2.517,3.189 -2.886,5.614l16.92,-0Z" style="fill:#131522;fill-rule:nonzero;"/><path d="M638.603,42.17c1.581,-2.425 3.558,-4.336 5.93,-5.733c2.372,-1.397 5.008,-2.095 7.907,-2.095l-0,14.311l-3.717,0c-3.373,0 -5.903,0.725 -7.59,2.175c-1.687,1.449 -2.53,3.993 -2.53,7.63l-0,20.479l-13.521,-0l-0,-44.121l13.521,0l-0,7.354Z" style="fill:#131522;fill-rule:nonzero;"/></svg>